<svg xmlns="http://www.w3.org/2000/svg" xml:space="preserve" style="fill-rule:evenodd;clip-rule:evenodd;stroke-linecap:round;stroke-linejoin:round;stroke-miterlimit:1.25" viewBox="0 0 1080 1506"><path d="M0 0h2048v1536H0z" style="fill:none" transform="translate(-484.383 -16.9)"/><path d="m540.417 0 539.58 751.62-539.79 753.5L0 754.977zm.04 58.062L41.644 754.917l498.493 692.213 498.23-695.489z"/><path d="m1293.02 1091.78-70.72 91.38c-5.15 1.44-12.29 8.64-20.69-2.09s-8.21-58.18-1.76-81.89c6.44-23.71 5.69-32.53.67-31.22-22.53 5.9-15.68 109.57-15.68 109.57-19.18 6-81.73 17.29-131.58 21.64-49.84 4.34-138.027-14.63-138.027-14.63 6.092-42.74-11.851-61.63-11.83-51.11s6.217 57.62-12.684 68.78c-18.9 11.17-40.599.83-46.298-2.61s-8.044-.68-8.044-.68c-40.818-30.99-132.979-228.755-132.979-228.755-20.47-31.431-40.37-106.677-29.817-121.517 28.952-40.713 99.898 37.695 99.898 37.695 24.408 23.637 96.898 193.007 105.247 184.257 8.349-8.76-54.459-137.29-95.284-192.515s-94.195-49.83-94.195-49.83c-7.606-27.056 9.609-49.714 25.745-52.913 18.893-3.745 78.194 43.824 78.396 43.938.056-.469-18.968-26.595-25.234-33.827-4.281-4.941-3.988-6.278-10.48-5.844-16.507 1.103 2.484-19.791 3.634-21.056 4.425-4.869 9.233-9.379 14.032-13.88.259-11.993 33.574-100.98 33.574-100.98-5.896 3.425-56.902 26.602-56.902 26.602l-2.263-12.215c-3.364 5.328-17.789 14.131-19.474 15.159-130.369 79.562-181.718 82.776-198.857 90.736 0 0 6.955-13.374 24.194-19.512 63.674-22.671 207.877-130.732 245.008-162.488 32.043-27.405 113.925-82.985 212.63-95.306 90.5-11.298 210.13 53.992 246.95 82.541 48.57 37.655 221.58 166.874 221.58 166.874l36.12 30.527c-71.72-5.94-204.66-130.99-212.35-126.196-7.68 4.795.81 25.977.81 25.977-15.94 3.128-42.8-35.708-46.38-32.894-4.73 3.721 48.13 136.77 48.13 136.77l18.47 11.492c-17.25-1.7-54.93 28.82-51.5 34.579 2.89 4.853 12.49-4.117 20.84-9.586 11.79-7.731 33.95-21.58 50-23.145 15.09-1.471 28.86 11.096 27.7 20.079-.84 6.584-22.25 10.493-22.25 10.493-.8-3.428.99-9.065-1.02-12.668-5.23-9.352-18.76-10.113-21.83 2.88-2.41 10.253 6.16 20.007 6.16 20.007-21.05 10.917-84.6 119.17-92.69 139.356-7.52 18.797-29.76 62.745-19.72 62.345s15.92-8.68 23.48-36.008c7.56-27.323 82.53-134.751 82.53-134.751 28.43-47.076 56.73-37.918 73.23-22.179 16.51 15.739-9.74 92.756-16.09 103.897-6.34 11.141-6.47 30.476-6.47 30.476l-58.57 87.075c1.89-3.55 51.12-93.669 22.83-103.29-11.79-4.01-36.89 21.598-56.39 62.23-19.5 40.62-26.21 77.99-14.99 83.37 4.51 2.17 13.51 2.23 21.19-5.14M754.372 965.232c-10.332 5.059-4.115 38.988 13.874 75.728 17.989 36.73 40.982 62.45 51.314 57.39s4.115-38.99-13.874-75.73c-17.989-36.731-40.982-62.448-51.314-57.388m318.908-293.289c-8.53 1.94 9.38 20.231 26.68 17.947s33.95-20.159 58.1-19.7c24.16.46 54.28 16.543 68.52 21.738 8.24 3.003 4.75-14.007-6.45-17.516-10.86-3.404-35.11-19.072-62.39-18.08-27.28.991-46.69 18.447-59.35 20.015-16.64 2.062-13.36-7.075-25.11-4.404m-44.73-150.128c-37.366 0-67.701 30.335-67.701 67.7s30.335 67.7 67.701 67.7c37.36 0 67.7-30.335 67.7-67.7s-30.34-67.7-67.7-67.7M847.447 696.106c-2.516 11.022 35.281-22.068 67.166-20.751s47.471 20.631 63.719 17.543 19.362-17.079 16.228-23.09-3.289 7.351-14.903 8.684-40.406-21.291-66.473-19.569c-26.068 1.722-62.316 22.197-65.737 37.183M735.919 799.025c-7.889 0-14.293 6.405-14.293 14.293s6.404 14.293 14.293 14.293 14.292-6.405 14.292-14.293-6.404-14.293-14.292-14.293m233.329-69.996c-.163 9.095 12.878 22.468 35.652 22.948 8.11.171 10.51-4.88 28.93-4.081 17.72.769 23 10.938 39.7 6.602 20.77-5.393 31.02-34.397 20.55-38.876-9.99-4.277.54 21.951-23.58 26.585-15.1 2.9-17.94-7.571-41.92-8.408-23.99-.837-32.079 13.587-41.421 3.353-9.85-10.791-.869-16.319 9.814-17.61 7.097-.858-2.385-18.26-17.395-9.504-7.678 4.479-10.196 11.441-10.33 18.991" style="stroke:#000;stroke-width:4px" transform="translate(-483.687 -17.2)"/><path d="m80.476 810.006 9.288 14.15s11.463-10.62 31.407-9.172 74.789-28.028 79.798-42.286-35.539 22.164-74.082 30.063c-38.543 7.9-33.724 8.996-46.411 7.245m895.941 29.352 12.2-17.535s-33.27-1.607-44.94-9.475c-11.68-7.867-39.71-24.22-45-21.858s12.58 8.84 23.76 18.277c11.19 9.436 29.61 13.5 42.84 19.26 13.24 5.76 9.48 5.611 11.14 11.331"/></svg>