<svg xmlns="http://www.w3.org/2000/svg" xml:space="preserve" width="530.623" height="395.152" viewBox="0 0 140.394 104.551"><path d="M85.807 92.351c11.507 1.438 14.358 16.92 14.358 16.92-1.917-4.795-20.352-13.803-33.298-12.005-20.443 2.84-35.044 22.781-31.286 49.266 4.214 29.698 37.798 46.437 35.96 46.988-3.595 1.08-10.667.36-13.664-1.198-5.707-2.968-9.47-8.87-9.47-8.87l6.114 13.185h25.052c-14.743-14.624-16.302-17.5-25.532-31.046-12.225-17.94-8.75-56.099 13.665-63.65 15.956-5.376 33.084 15.343 33.084 15.343s1.918 42.194.96 58.976c-.96 16.781-14.865 20.317-14.865 20.317s-2.979.078 18.17-.178c21.15.256 18.17.178 18.17.178s-13.904-3.536-14.863-20.317c-.96-16.782.958-58.976.958-58.976s17.13-20.719 33.085-15.343c22.415 7.551 25.89 45.71 13.665 63.65-9.23 13.545-10.789 16.422-25.533 31.046h25.053l6.113-13.186s-3.762 5.903-9.47 8.871c-2.996 1.558-10.068 2.277-13.664 1.198-1.837-.55 31.746-17.29 35.96-46.988 3.759-26.485-10.842-46.427-31.286-49.266-12.945-1.798-31.38 7.21-33.297 12.005 0 0 2.85-15.482 14.358-16.92l-16.364.087.031 2.951-2.835-.04v-.001h-.161v.002l-2.835.039.03-2.95z" style="display:inline;fill:#000;stroke:#000;stroke-width:.264583;stroke-linecap:round;stroke-linejoin:round;stroke-dasharray:none;stroke-opacity:1;paint-order:fill markers stroke" transform="translate(-34.858 -92.219)"/></svg>