<svg xmlns="http://www.w3.org/2000/svg" xmlns:vectornator="http://vectornator.io" xml:space="preserve" stroke-miterlimit="10" style="fill-rule:nonzero;clip-rule:evenodd;stroke-linecap:round;stroke-linejoin:round" viewBox="0 0 354 500"><g vectornator:layerName="Line2" stroke="#000" stroke-linecap="butt"><g vectornator:layerName="成组 1" fill="none"><path vectornator:layerName="椭圆 1" d="M85.036 229.834C85.036 156.151 126.21 96.42 177 96.42s91.964 59.731 91.964 133.414S227.79 363.249 177 363.249s-91.964-59.732-91.964-133.415Z"/><path vectornator:layerName="椭圆 2" stroke-width="2" d="M81.566 229.834c0-75.942 42.727-137.504 95.434-137.504s95.434 61.562 95.434 137.504S229.707 367.339 177 367.339s-95.434-61.563-95.434-137.505Z"/></g><g vectornator:layerName="成组 1"><g vectornator:layerName="成组 2"><path vectornator:layerName="曲线 2" d="M83.304 128.927s-13.787 17.018-5.998 39.831c0 0-6.311-4.211-7.282-12.861-.572-5.091-6.529-15.154-13.73-13.988-9.413 1.526-16.432 20.878-10.302 24.214 3.018 1.643 4.134-2.178 8.104-1.652 8.233 1.091 18.062 30.852 1.359 39.368-5.733 2.922-9.377-6.181-13.839-3.746-5.125 2.797-4.559 17.702 8.88 48.94 14.235 33.087 17.1 47.331 18.57 53.395 0 0 7.555-7.69 16.049-.282 12.809 11.171 5.482 34.176.081 48.861-3.469 9.432-18.541 41.974-20.835 49.422-2.271 7.377-3.648 20.127 1.617 24.623 10.765 9.19 25.49 1.526 32.032-3.145 47.791-34.123 57.966-48.144 65.282-48.096 6.864.044 8.879 16.015 18.539 24.508 3.288 2.889 5.976.75 5.85-2.533 0 0 8.83 11.749-1.547 30.658-2.3 4.191-6.453 8.888-9.967 12.228-5.811 5.522-13.008 9.797-16.536 12.529-3.34 2.587-6.75 7.167-5.954 9.728.892 2.87 5.616.568 9.785 3.162s3.204-26.649-4.237-28c-6.476-1.175 1.11 3.931-4.743 7.424s-21.426-2.214-20.142-18.049c1.284-15.836 19.947-18.534 10.813-38.625-13.405-29.484-82.228-27.929-101.634-1.216-19.335 26.616-24.525-4.183-20.865-14.384 5.646-15.735 21.44-30.111 25.201-43.189 2.19-7.617-.67-21.766-7.281-18.828 0 0 6.702-8.194 11.96 1.354 3.613 6.559-1.319 23.326 14.311 22.322 9.316-.599 16.304-24.744 9.106-44.429-3.342-9.138-9.432-30.113-20.396-52.715-16.818-34.666-24.606-55.835-26.683-69.538-4.706-31.059 14.46-70.19 46.036-71.085 20.016-.568 4.809 10.333 10.5 17.291 6.094 7.45 37.398-16.547 47.127-36.922 3.911-8.19 5.619-20.014-.396-22.134-5.042-1.777-23.097 13.48-25.736 2.577C104.23 46.966 119.619 35.938 134.74 37c14.449 1.015 30.942 9.712 43.268 22.631 15.024 15.749 30.709 19.365 44.374 19.572 9.951.15 18.7-1.835 25.023-3.065 7.197-1.4 29.179-12.11 43.854-7.544 0 0-5.739-8.018-25.863-3.321-15.613 3.644-54.239 20.34-71.528-9.31-11.431-19.603 1.266-28.2 3.88-27.891 2.648.313 4.535 3.835.033 6.744 0 0-.393-3.13-2.724-2.799-4.284.61-10.018 18.177 8.896 30.708s49.91.388 62.932-.697 36.003-.46 43.857 22.143c10.594 30.488-11.458 66.308-17.856 77.212-11.625 19.811-18.374 47.494-2.872 49.903 4.129.642 5.099-6.062 5.099-6.062s3.916 5.49 2.943 10.88c-.471 2.613-2.326 6.022-5.886 7.203-11.013 3.654-18.066-13.521-15.218-26.353 2.4-10.815 2.97-13.751 7.353-23.519 1.923-4.285 33.34-52.085 26.72-81.03-2.081-9.103-9.6-20.352-20.603-22.1-8.955-1.424-12.33-1.015-42.906 8.836-6.825 2.2-24.304 4.827-32.744 3.957-20.529-2.116-32.71-15.557-38.021-21.963-10.64-12.832-29.273-21.805-43.936-21.263-13.18.487-22.497 7.615-17.736 12.671 2.876 3.053 11.901-2.333 18.57-1.57 6.668.761 7.256 14.984 1.248 26.068-7.537 13.903-25.276 35.884-40.976 40.74-5.344 1.653-10.144 5.665-13.631 6.895-8.183 2.887-12.397 4.819-14.656 9.014 0 0 .026-7.589 6.453-14.213 4.58-4.721 3.81-11.511-2.047-13.513-6.061-2.071-20.605 4.724-29.494 17.311-6.654 9.423-10.72 23.562-8.398 44.031 2.434 21.465 23.406 59.526 25.869 66.915s42.682 85.251 15.323 104.585c-15.088 10.662-20.326-8.007-21.535-13.782 0 0-6.234 18.988-12.874 24.974-5.53 4.986-13.034 26.297-3.492 31.971 6.36 3.783 11.637-2.626 19.59-8.461 12.499-9.17 64.163-22.757 90.177 7.513 16.487 19.184 11.77 28.753 6.63 36.907-5.141 8.154-10.251 21.584 1.272 22.547 4.679.392-1.387-9.493 4.613-11.055 8.473-2.205 13.391 32.191 8.232 35.744-.466.321.089 1.132-8.985.28-6.94-.652-18.364 10.341-20.939 5.045-3.133-6.443 23.108-22.896 32.267-27.475 9.158-4.579 27.759-28.225 9.264-46.004-2.248-2.161-4.334-5.707-5.244-7.524-2.38-4.752-4.962-9.516-10.711-9.951-10.119-.766-5.528 5.342-63.854 44.98-17.538 11.919-31.06 18.728-41.076 7.556-7.65-8.533-1.374-26.927 3.16-35.307 4.533-8.38 18.954-36.42 22.942-45.885 5.672-13.461 11.258-47.661-4.438-46.424-4.337.342-5.847 5.158-4.576 6.805.918 1.191 2.102 1.679 4.247 1.724 0 0-5.843 3.863-8.613 1.701s-2.803-5.619-2.465-10.347c.268-3.747-16.553-48.671-18.274-53.946-1.72-5.275-25.831-56.901-2.72-57.603 8.126-.247 5.712 6.156 10.982 5.038s7.24-22.029-.017-27.734c-3.276-2.575-8.641 11.19-14.853-1.916-6.972-14.713 6.642-27.426 13.597-28.945 6.736-1.471 8.123.038 14.192-2.198s9.588-6.78 13.465-8.107Z"/><path vectornator:layerName="曲线 3" d="M122.893 383.963s1.493-2.671-.65-3.166c-2.726-.628-11.261 3.607-19.199 11.912-6.261 6.551-14.207 15.364-20.373 12.072-4.968-2.652 3.225-14.129 10.483-19.479 5.78-4.261 25.721-19.707 23.176-27.035-2.219-6.389-13.699-6.107-25.017-4.62-8.415 1.106-28.841 6.44-37.267 12.766-8.015 6.017-13.311 6.562-14.745 4.143-2.968-5.009 2.967-10.539 6.267-14.798 3.852-4.971 18.075-27.351 8.742-58.083-5.519-18.173-18.318-43.255-25.644-67.331-3.594-11.809-5.87-26.041-5.324-33.915 1.046-15.098 10.918-23.603 18.972-22.242 6.42 1.084 11.862 9.526 5.534 13.167 0 0 .415-2.476-.825-4.225-1.082-1.526-2.752-1.876-4.438-1.975-4.107-.242-18.17 4.447-16.824 19.699.397 4.509 1.838 17.853 5.398 28.935 8.483 26.406 23.532 59.366 25.744 69.241 3.14 14.019 6.864 28.879-6.57 52.237-3.181 5.532-4.717 10.279-1.707 11.884s8.346-2.111 8.346-2.111 15.451-5.909 29.013-8.379c11.65-2.121 25.979-1.957 29.662.244 6.386 3.817 5.839 8.035 1.124 13.955-4.716 5.919-26.2 22.687-22.475 26.688 2.87 3.083 7.221-3.851 13.014-8.116 6.721-4.949 15.462-8.319 17.025-5.899 1.122 1.737-.074 3.636-1.442 4.431Z"/></g><g vectornator:layerName="成组 1"><path vectornator:layerName="曲线 2" d="M270.696 128.927s13.787 17.018 5.998 39.831c0 0 6.311-4.211 7.282-12.861.572-5.091 6.529-15.154 13.729-13.988 9.415 1.526 16.433 20.878 10.303 24.214-3.018 1.643-4.134-2.178-8.104-1.652-8.233 1.091-18.062 30.852-1.359 39.368 5.733 2.922 9.377-6.181 13.839-3.746 5.125 2.797 4.559 17.702-8.88 48.94-14.235 33.087-17.1 47.331-18.57 53.395 0 0-7.555-7.69-16.049-.282-12.809 11.171-5.482 34.176-.081 48.861 3.469 9.432 18.541 41.974 20.835 49.422 2.271 7.377 3.648 20.127-1.617 24.623-10.764 9.19-25.491 1.526-32.032-3.145-47.791-34.123-57.966-48.144-65.282-48.096-6.864.044-8.879 16.015-18.539 24.508-3.288 2.889-5.976.75-5.85-2.533 0 0-8.83 11.749 1.547 30.658 2.3 4.191 6.453 8.888 9.967 12.228 5.811 5.522 13.008 9.797 16.536 12.529 3.34 2.587 6.75 7.167 5.954 9.728-.892 2.87-5.616.568-9.785 3.162s-3.204-26.649 4.237-28c6.476-1.175-1.11 3.931 4.743 7.424s21.426-2.214 20.142-18.049c-1.284-15.836-19.947-18.534-10.813-38.625 13.405-29.484 82.228-27.929 101.634-1.216 19.335 26.616 24.525-4.183 20.865-14.384-5.646-15.735-21.439-30.111-25.201-43.189-2.191-7.617.671-21.766 7.281-18.828 0 0-6.702-8.194-11.961 1.354-3.612 6.559 1.32 23.326-14.31 22.322-9.316-.599-16.304-24.744-9.106-44.429 3.342-9.138 9.432-30.113 20.396-52.715 16.818-34.666 24.606-55.835 26.683-69.538 4.707-31.059-14.46-70.19-46.036-71.085-20.016-.568-4.809 10.333-10.5 17.291-6.094 7.45-37.398-16.547-47.127-36.922-3.911-8.19-5.619-20.014.396-22.134 5.042-1.777 23.097 13.48 25.736 2.577C249.77 46.966 234.381 35.938 219.26 37c-14.449 1.015-30.942 9.712-43.268 22.631-15.024 15.749-30.709 19.365-44.374 19.572-9.951.15-18.7-1.835-25.023-3.065-7.197-1.4-29.18-12.11-43.854-7.544 0 0 5.739-8.018 25.863-3.321 15.613 3.644 54.239 20.34 71.528-9.31 11.431-19.603-1.266-28.2-3.88-27.891-2.648.313-4.535 3.835-.033 6.744 0 0 .393-3.13 2.724-2.799 4.284.61 10.018 18.177-8.896 30.708s-49.91.388-62.932-.697-36.003-.46-43.857 22.143c-10.594 30.488 11.458 66.308 17.856 77.212 11.625 19.811 18.374 47.494 2.872 49.903-4.129.642-5.1-6.062-5.1-6.062s-3.915 5.49-2.942 10.88c.471 2.613 2.326 6.022 5.886 7.203 11.014 3.654 18.066-13.521 15.218-26.353-2.4-10.815-2.97-13.751-7.353-23.519-1.923-4.285-33.34-52.085-26.72-81.03 2.081-9.103 9.6-20.352 20.603-22.1 8.955-1.424 12.33-1.015 42.906 8.836 6.825 2.2 24.304 4.827 32.744 3.957 20.529-2.116 32.71-15.557 38.021-21.963 10.64-12.832 29.273-21.805 43.936-21.263 13.18.487 22.497 7.615 17.736 12.671-2.876 3.053-11.901-2.333-18.57-1.57-6.668.761-7.256 14.984-1.248 26.068 7.537 13.903 25.276 35.884 40.977 40.74 5.343 1.653 10.143 5.665 13.63 6.895 8.183 2.887 12.397 4.819 14.656 9.014 0 0-.026-7.589-6.453-14.213-4.58-4.721-3.81-11.511 2.047-13.513 6.061-2.071 20.605 4.724 29.494 17.311 6.654 9.423 10.72 23.562 8.398 44.031-2.434 21.465-23.406 59.526-25.869 66.915s-42.682 85.251-15.323 104.585c15.088 10.662 20.326-8.007 21.535-13.782 0 0 6.234 18.988 12.874 24.974 5.531 4.986 13.034 26.297 3.492 31.971-6.361 3.783-11.637-2.626-19.59-8.461-12.499-9.17-64.163-22.757-90.177 7.513-16.487 19.184-11.77 28.753-6.63 36.907 5.141 8.154 10.251 21.584-1.272 22.547-4.679.392 1.387-9.493-4.613-11.055-8.473-2.205-13.391 32.191-8.232 35.744.466.321-.089 1.132 8.985.28 6.94-.652 18.364 10.341 20.939 5.045 3.133-6.443-23.108-22.896-32.267-27.475-9.158-4.579-27.759-28.225-9.264-46.004 2.248-2.161 4.334-5.707 5.244-7.524 2.38-4.752 4.962-9.516 10.711-9.951 10.119-.766 5.528 5.342 63.854 44.98 17.538 11.919 31.061 18.728 41.076 7.556 7.649-8.533 1.374-26.927-3.159-35.307-4.534-8.38-18.955-36.42-22.943-45.885-5.672-13.461-11.258-47.661 4.438-46.424 4.337.342 5.847 5.158 4.577 6.805-.919 1.191-2.103 1.679-4.248 1.724 0 0 5.843 3.863 8.613 1.701s2.803-5.619 2.465-10.347c-.268-3.747 16.553-48.671 18.273-53.946 1.721-5.275 25.832-56.901 2.721-57.603-8.126-.247-5.712 6.156-10.982 5.038-5.271-1.118-7.24-22.029.017-27.734 3.276-2.575 8.641 11.19 14.853-1.916 6.972-14.713-6.642-27.426-13.597-28.945-6.736-1.471-8.123.038-14.192-2.198s-9.588-6.78-13.465-8.107Z"/><path vectornator:layerName="曲线 3" d="M231.107 383.963s-1.493-2.671.65-3.166c2.726-.628 11.261 3.607 19.199 11.912 6.261 6.551 14.207 15.364 20.373 12.072 4.968-2.652-3.225-14.129-10.483-19.479-5.781-4.261-25.721-19.707-23.176-27.035 2.219-6.389 13.699-6.107 25.017-4.62 8.415 1.106 28.841 6.44 37.267 12.766 8.015 6.017 13.311 6.562 14.745 4.143 2.968-5.009-2.967-10.539-6.267-14.798-3.852-4.971-18.075-27.351-8.742-58.083 5.519-18.173 18.318-43.255 25.644-67.331 3.594-11.809 5.87-26.041 5.324-33.915-1.046-15.098-10.918-23.603-18.972-22.242-6.421 1.084-11.862 9.526-5.534 13.167 0 0-.415-2.476.825-4.225 1.082-1.526 2.752-1.876 4.438-1.975 4.107-.242 18.17 4.447 16.824 19.699-.397 4.509-1.838 17.853-5.398 28.935-8.483 26.406-23.532 59.366-25.744 69.241-3.14 14.019-6.864 28.879 6.57 52.237 3.181 5.532 4.717 10.279 1.707 11.884s-8.346-2.111-8.346-2.111-15.451-5.909-29.013-8.379c-11.65-2.121-25.979-1.957-29.662.244-6.386 3.817-5.839 8.035-1.124 13.955 4.716 5.919 26.2 22.687 22.475 26.688-2.869 3.083-7.221-3.851-13.014-8.116-6.721-4.949-15.462-8.319-17.025-5.899-1.122 1.737.074 3.636 1.442 4.431Z"/></g></g></g></svg>