<svg xmlns="http://www.w3.org/2000/svg" xmlns:vectornator="http://vectornator.io" xml:space="preserve" stroke-miterlimit="10" style="fill-rule:nonzero;clip-rule:evenodd;stroke-linecap:round;stroke-linejoin:round" viewBox="0 0 354 500"><g vectornator:layerName="luminance" stroke="#000" stroke-linecap="butt"><g vectornator:layerName="成组 2"><path vectornator:layerName="曲线 1" d="M181.155 87.816s6.401 10.508 12.909 6.679c6.87-4.043-2.178-14.32.784-18.346 2.686-3.65 30.84 3.528 42.371 51.614 12.815 53.439 35.112 26.706 28.346-1.121-8.557-35.188-45.797-58.096-35.185-66.64s55.949-9.371 51.953 5.925c-3.997 15.297-7.085 17.507-6.589 30.894.496 13.388-1.64 292.019.61 305.579 4.394 26.478 30.717 34.304 17.16 38.72-7.402 2.412-25.265-5.369-44.846-5.936-13.295-.384-25.977 3.727-35.867 3.768-15.423.064 2.327-11.913 3.444-19.045 1.565-9.999-26.846-21.15-32.897-13.942-6.589 7.85.645 12.959-.419 14.666-1.181 1.894-3.805.363-3.857 2.001-.046 1.46 5.074 2.764 7.754-.389 4.013-4.72 1.691-12.482 14.225-11.358 6.792.61 18.421 6.12 2.045 16.837-24.391 15.962-10.034 28.978 15.725 18.847 22.764-8.952 60.122-6.417 74.596 1.807 5.67 3.222 19.025 5.682 23.751 1.436 4.814-4.325-.638-20.904-14.997-31.259-11.389-8.213-20.405-17.173-21.432-26.136-1.228-10.718-4.911-287.589.096-302.434 3.708-10.997 21.722-14.807 27.124-20.95 3.341-3.797-3.615-14.15-21.967-18.415-17.67-4.105-69.089-4.105-72.782 4.167-3.578 8.01 3.111 14.952 12.272 23.014 15.771 13.88 38.869 31.083 29.512 62.785-2.436 8.253-11.178-24.954-27.938-50.844-12.206-18.855-35.853-27.913-41.069-24.129-11.679 8.474 4.212 18.799 1.345 21.653-2.7 2.688-3.95-2.163-6.177.552Z"/><path vectornator:layerName="曲线 2" d="M243.494 78.861s3.968 1 5.258-1.15-1.727-10.18 1.188-9.936c3.985.334 22.389 6.792 24.673 53.863.19 3.919 9.972 14.285 14.844 12.056 5.472-2.503.608-25.576 5.838-30.645 3.7-3.587 7.34-5.031 11.141-2.511 4.392 2.911 2.908 9.041-3.189 17.369-11.984 16.37-16.562 28.846-27.888 45.856-28.89 43.388-1.23 131.41 20.734 171.812 10.91 20.068-9.333 25.688-25.54 32.838s-27.058 9.482-28.05 21.986c-.529 6.655 19.088 14.322 8.527 18.624-7.078 2.884-29.051-6.858-27.851 9.164.838 11.195 16.315 6.288 17.362 9.343.63 1.836 1.432 3.089 1.862 2.877.511-.252 2.463-3.438-.636-6.029-3.099-2.592-8.835-5.876-5.458-9.727 3.531-4.027 28.09 7.058 31.711 1.523 5.647-8.633-22.586-19.847-13.469-30.038 13.507-15.098 29.627-13.754 42.073-12.141 14.521 1.882 33.009.13 19.569-30.301-13.314-30.147-54.269-105.273-43.604-153.911 7.118-32.461 28.025-62.162 42.819-70.299 18.844-10.365 12.755-39.54-11.45-31.16-22.829 7.904-8.427 28.248-19.572 29.197-11.146.948-5.047-55.601-40.436-58.17-13.331-.968 1.37 15.606 1.468 15.749.091.132 1.241 2.284-1.924 3.761Z"/></g><g vectornator:layerName="成组 1"><path vectornator:layerName="曲线 1" d="M172.845 87.816s-6.401 10.508-12.909 6.679c-6.87-4.043 2.178-14.32-.784-18.346-2.686-3.65-30.84 3.528-42.371 51.614-12.815 53.439-35.112 26.706-28.345-1.121 8.556-35.188 45.796-58.096 35.184-66.64-10.611-8.544-55.95-9.371-51.953 5.925 3.997 15.297 7.085 17.507 6.589 30.894-.496 13.388 1.64 292.019-.61 305.579-4.394 26.478-30.717 34.304-17.16 38.72 7.402 2.412 25.265-5.369 44.846-5.936 13.295-.384 25.977 3.727 35.867 3.768 15.423.064-2.327-11.913-3.444-19.045-1.565-9.999 26.846-21.15 32.897-13.942 6.589 7.85-.645 12.959.419 14.666 1.181 1.894 3.805.363 3.857 2.001.046 1.46-5.074 2.764-7.754-.389-4.013-4.72-1.691-12.482-14.225-11.358-6.792.61-18.421 6.12-2.045 16.837 24.391 15.962 10.034 28.978-15.725 18.847-22.764-8.952-60.122-6.417-74.596 1.807-5.67 3.222-19.025 5.682-23.75 1.436-4.815-4.325.637-20.904 14.997-31.259 11.388-8.213 20.404-17.173 21.431-26.136 1.228-10.718 4.911-287.589-.096-302.434-3.708-10.997-21.722-14.807-27.124-20.95-3.34-3.797 3.615-14.15 21.967-18.415 17.67-4.105 69.089-4.105 72.782 4.167 3.578 8.01-3.111 14.952-12.272 23.014-15.771 13.88-38.869 31.083-29.512 62.785 2.436 8.253 11.178-24.954 27.938-50.844 12.206-18.855 35.853-27.913 41.069-24.129 11.679 8.474-4.212 18.799-1.345 21.653 2.7 2.688 3.95-2.163 6.177.552Z"/><path vectornator:layerName="曲线 2" d="M110.506 78.861s-3.968 1-5.258-1.15 1.727-10.18-1.188-9.936c-3.985.334-22.39 6.792-24.673 53.863-.19 3.919-9.972 14.285-14.844 12.056-5.472-2.503-.608-25.576-5.838-30.645-3.7-3.587-7.34-5.031-11.141-2.511-4.392 2.911-2.908 9.041 3.19 17.369 11.983 16.37 16.56 28.846 27.887 45.856 28.89 43.388 1.23 131.41-20.734 171.812-10.91 20.068 9.334 25.688 25.54 32.838 16.207 7.15 27.058 9.482 28.05 21.986.529 6.655-19.088 14.322-8.527 18.624 7.078 2.884 29.051-6.858 27.851 9.164-.838 11.195-16.315 6.288-17.362 9.343-.63 1.836-1.432 3.089-1.862 2.877-.511-.252-2.463-3.438.636-6.029 3.099-2.592 8.835-5.876 5.458-9.727-3.531-4.027-28.09 7.058-31.71 1.523-5.648-8.633 22.585-19.847 13.468-30.038-13.507-15.098-29.627-13.754-42.073-12.141-14.52 1.882-33.01.13-19.57-30.301 13.315-30.147 54.27-105.273 43.605-153.911-7.118-32.461-28.025-62.162-42.819-70.299-18.844-10.365-12.755-39.54 11.45-31.16 22.829 7.904 8.427 28.248 19.573 29.197 11.145.948 5.046-55.601 40.435-58.17 13.331-.968-1.37 15.606-1.468 15.749-.091.132-1.241 2.284 1.924 3.761Z"/></g></g></svg>