<svg xmlns="http://www.w3.org/2000/svg" xml:space="preserve" width="198.982" height="198.982" viewBox="0 0 48.776 48.776"><g transform="translate(-.125 -.125)"><circle cx="24.513" cy="24.513" r="24.265" style="fill:none;stroke:currentColor;stroke-width:.245126;stroke-linecap:round;stroke-linejoin:round;stroke-dasharray:none;paint-order:fill markers stroke"/><circle cx="24.513" cy="24.513" r="1.88" style="fill:currentColor;stroke:none;stroke-width:.245126;stroke-linecap:round;stroke-linejoin:round;stroke-dasharray:none;paint-order:fill markers stroke"/></g><path d="M19.477 9.983s3.367-2.567 6.296-2.15c2.481.352 2.53 2.156 1.12 2.39-1.41.236-2.289-2.17-4.175-.766 0 0 1.222-.98 2.585.96 1.337 1.903 1.677-.794 7.286-.47 0 0-4.704-.16-4.68-1.748.035-2.124 2.682-2.834 4.562-2.717 1.88.118 3.505.309 5.934 6.11.814 1.943 5.783 3.775 5.23 8.96-.634 5.937-2.58 2.912-4.613 5.376-1.626 1.973-.852 9.96-4.083 11.869 0 0 2.635-.629 3.878-8.813.55-3.623 3.765-4.397 4.078-4.13.706.6-.436 1.12-.56 1.993-.126.873.02 1.641-.52 1.475s.062-2.036.644-2.534c0 0-2.14 1.433-.104 5.588 2.036 4.154-.125 4.944-.623 4.902-.499-.041-.707-1.37-.457-2.326s0-1.912-.416-2.202c0 0 .54 1.537-.25 2.617-.788 1.08.042 1.703.126 2.16s.124.914-1.039.873-1.911.623-1.87 1.08c0 0 .665-1.039 1.62-.623s.5 1.952-.664 2.326c-1.163.374-3.656-.249-5.235 2.285 0 0 1.65-1.806 3.906-1.495.602.083-.686.56-1.06.83-.243.176-.062.5-1.558 1.04-.951.343-.5 1.49-2.25 1.382-.934-.058-.317-1.842-2.55-1.43-2.233.41-1.693 2.227-5.848 2.875 0 0 1.793.304 4.76-1.604 1.35-.869 1.808.03 2.212.719.307.524 1.635 1.496 3.545.708 2.432-1.002 2.468-4.112 3.29-4.23.823-.117.94.47.059 1.293-.881.822 0 2.291-5.23 3.877 0 0 4.45-.912 5.082-2.45 1.234-3.01 1.693-2.103 1.751-2.747.042-.46-.5-.803.248-1.427.747-.623 3.458-1.689 4.58-4.43 1.121-2.743.711-2.893.904-3.754 0 0-.575 2.238-1.364 1.823s.367-1.74 1.613-2.903.83-3.116.623-3.864c-.208-.748.125-2.991.623-3.074 0 0-.667.004-1.121 3.033-.214 1.418-1.247 1.578-1.62 2.285-.375.706-.167 2.492-1.122 2.201s-1.494-2.221.024-3.332c1.077-.789.261-2.613.78-3.274.698-.89 1.057-.452 1.681-.842 1.33-.831 1.586-2.938 1.087-4.558-.498-1.62-1.898-3.514-2.106-5.508s-3.377-6.166-4.665-6.623c0 0 3.355 3.41 3.448 4.611.041.54.587.858.67 1.232s-.367 3.875.202 4.834c1.586 2.671 1.967 5.3.997 5.318-1.205.021-1.537-4.986-1.495-5.526s-.571-4.007-1.288-5.027c-1.08-1.537-2.867-3.074-3.947-3.614 0 0 3.49 3.406 2.659 3.531-.83.125-2.534-1.413-3.116-3.157-.582-1.745-1.87-3.573-3.24-3.906-1.371-.332-3.033.083-3.449-.083s-1.37-.581-1.121-1.205c.249-.623 2.525-.992 4.86.291 0 0-6.145-3.947-12.837-1.786 0 0 4.79-1.038 4.57.498-.092.644-2.676.232-4.91.788-.74.184-3.067 1.497-3.233.874s.502-.998 2.202-1.703c0 0-3.799 1.24-3.857 2.134-.086 1.34-1.617 2.093-2.375 1.979-1.1-.166-.51-.464-1.383-.381s-.881-.305-.736-.616c.146-.312.137-.618 1.89-.997 0 0-3.511.052-4.598 2.637-.68 1.615-.118 2.702-.705 3.114-.588.41-1.313.635-1.822 1.939 0 0 1.329-1.802 1.649-1.168.169.334-.35 1.503-.879 1.68-.528.175-.535 1.426-1.064 1.544-.528.117-.705-.235-.998.235s-.06 2.115-1 2.115-.88-2.644-.058-2.879c.823-.235 2.233-1.998 2.35-2.938 0 0-1.057 1.704-1.821 1.763s-5.69 8.373-1.707 18.864c0 0-1.013-4.127-.778-5.126.235-.998-.218-5.571.428-5.512.647.058.882 2.115.294 3.995-.587 1.88.234 10.587 5.993 13.337 5.655 2.7 6.287 6.58 6.287 6.58s-.04-3.2-4.818-6.286c-2.108-1.362-.235-1.293.764-.94.999.352 3.584 2.526 4.23 3.701s3.187 5.864 7.873 5.406c3.095-.303 4.407-1.058 4.877-1.234 0 0-2.047.563-2.81.563-.764 0-1.647-.384-4.065.083-1.567.303-4.23-2.761-4.582-3.878-.353-1.116-4.877-6.169-7.345-6.698-2.467-.528-4.6-1.716-5.317-3.73-.617-1.734-.44-3.085-.147-3.026.294.058 1.175 3.584 2.174 3.231.999-.352.132-2.778-.235-3.878-.206-.617-1.087-2.291-1.85-3.202 0 0 2.114 4.348 1.263 4.612-1.068.332-2.936-5.67-1.176-6.11.588-.147.412.97 1.293.852.626-.084.777-.498.27-2.102-.206-.653-1.518-1.552-1.438-2.71.169-2.438.937-2.572 2.171-2.572s3.876-.977 3.075-2.654c-.533-1.116-1.354-.72-1.279-1.144.096-.533.45-.187.961-.54.782-.538 1.58-.821 2.226-.469.647.353 3.297.822 2.592 1.41-.705.587-.215 1.105-.755 1.064 0 0 1.08-.25 1.08-1.039 0-.79-2.119-1.495-2.534-1.828-.416-.332-.125.25-.416.125-.29-.125-2.035.041-2.576.457-.54.415-.36-1.591.646-1.698 1.19-.127 4.506-2.249 5.42-2.249s1.994.914 2.991.29c0 0-1.004.337-1.745-.165-1.163-.79-3.115-.125-4.237.498s-1.828 1.537-2.119 1.08c-.29-.457 2.784-1.786 3.157-2.118.374-.333.291-1.08 1.08-1.122s2.95.041 2.867-.914-.292-1.527.291-1.537c.729-.012-.12.836.379.96.499.125 1.329-.262 2.03-.877 1.172-1.027 6.939-2.41 6.897.25-.041 2.658-2.645 2.057-3.465 2.277-.991.266-3.53 1.717-4.124 2.586" style="display:inline;opacity:1;fill:currentColor;stroke:none;stroke-width:.245126;stroke-linecap:round;stroke-linejoin:round;stroke-dasharray:none;paint-order:fill markers stroke" transform="translate(-.125 -.125)"/><path d="M22.77 13.556c.409-.01 1.227-.03 1.78-.023s.84.04 1.045.096.437.211.447.273.049.292-.004.335c-.052.043-.167.137-.437.194s-.695.077-1.14.031-.91-.157-1.364-.17-1.345.157-1.516.26c-.17.103-.52.314-.816.45-.296.134-.538.193-.708.164-.17-.03-.268-.148-.242-.279.026-.13.177-.274.428-.386.251-.11.606-.19.96-.268-.491.059-.982.118-1.474.236s-1.471.47-1.612.55c-.14.081-.412.237-.66.445-.246.209-.469.47-.691.732.085-.072.17-.144.261-.167.092-.023.19.004.233.056.042.052.029.13-.02.193-.05.062-.134.108-.218.172s-.237.217-.305.251-.196.099-.372.173c-.175.075-.397.16-.57.294a1.24 1.24 0 0 0-.37.484 2 2 0 0 0-.107.535c0 .058 0 .331-.056.411s-.174.25-.246.393-.1.258-.081.366.16.313.147.385-.07.373-.101.455c-.032.083-.09.236-.134.459-.043.222-.07.514-.124.703-.053.19-.132.278-.237.294s-.362-.095-.425.038-.194.41-.276.613a3 3 0 0 0-.147.462c.083-.166.167-.333.254-.479.088-.146.181-.27.246-.312s.102 0 .109.07a.9.9 0 0 1-.075.334c-.035.056-.11.18-.206.321-.094.142-.328.469-.336.543s-.048.412-.037.467c.01.056.059.32.046.384-.012.065-.07.366-.083.424s-.042.187-.054.374c-.012.188-.007.433.046.708.053.276.155.581.238.852.083.27.148.506.23.766.08.259.177.54.237.856.06.314.084.661.107 1.008.014-.314.028-.629.007-.927a5 5 0 0 0-.155-.894c-.079-.312-.18-.654-.245-.987-.065-.334-.12-.995-.1-1.036.02-.04.118-.237.094-.282a3 3 0 0 0-.134-.236c-.057-.09-.189-.26-.164-.271s.128-.059.18-.054c.053.004.16.014.231-.017.071-.03.147-.182.155-.229.009-.046.028-.152-.017-.26-.044-.107-.269-.332-.258-.427s.035-.298.089-.45.136-.255.198-.335c.061-.079.147-.202.222-.214a.9.9 0 0 0 .333-.1c.103-.065.216-.291.265-.313s.153-.07.26-.093c.108-.024.219-.024.29.023.07.046.137.245.123.283l-.083.225c.074-.097.15-.197.165-.283.015-.087-.026-.165-.082-.235a.5.5 0 0 0-.231-.169c-.107-.039-.25-.058-.357-.074s-.175-.03-.205-.071c-.03-.042-.021-.112.037-.227.057-.116.164-.278.236-.433s.108-.303.11-.488c.004-.185-.062-.643-.066-.692a4 4 0 0 0-.033-.28c-.018-.12-.046-.25-.04-.363a.4.4 0 0 1 .107-.264c.059-.053.206-.071.234-.017s.09.173.142.286.094.22.175.3a.74.74 0 0 0 .303.167c.102.03.185.035.268.04-.106-.033-.213-.065-.303-.112a.6.6 0 0 1-.226-.19 1.8 1.8 0 0 1-.173-.349c-.008-.04-.028-.132-.014-.224a.6.6 0 0 1 .102-.249c.043-.063.115-.126.049-.185s-.323-.288-.321-.33c.002-.041.007-.139.076-.19.07-.05.204-.055.338-.076a1.1 1.1 0 0 0 .377-.12.9.9 0 0 0 .262-.243c.07-.093.125-.19.155-.282.03-.093.035-.18.1-.232.064-.05.19-.064.325-.11s.433-.204.468-.241a3 3 0 0 1 .252-.237c.141-.118.56-.434.655-.482a3 3 0 0 1 .471-.2c.179-.053.341-.062.482-.072s.382-.027.436-.05c.054-.022.166-.07.267-.095.1-.026.276-.035.295-.015.02.02.12.119.107.147-.012.029-.041.097-.111.146a.65.65 0 0 1-.328.083c-.145.007-.326-.007-.518.018-.192.026-.395.09-.532.141-.136.051-.206.088-.275.125.18-.05.36-.102.5-.13.138-.027.235-.032.36-.03s.278.012.424.007q.22-.005.41-.062c.124-.04.235-.1.344-.162s.215-.127.342-.171.276-.067.421-.077c.146-.009.433 0 .444.036.01.035.034.118-.002.196s-.134.153-.305.199-.416.065-.65.1c-.233.034-.678.136-.754.2-.077.066-.236.202-.316.324-.08.12-.08.227.006.294.085.067.256.095.432.088s.357-.048.537-.09c-.185.005-.37.01-.516.007-.146-.002-.252-.012-.31-.051-.058-.04-.067-.109-.032-.171.034-.063.113-.118.224-.176s.255-.118.363-.155c.11-.037.183-.05.249-.077s.175-.099.214-.094c.038.004.118.014.21.041.093.028.2.074.378.105.178.03.428.043.601.018a.58.58 0 0 0 .361-.18 1 1 0 0 0 .215-.313.43.43 0 0 0 .017-.287.6.6 0 0 0-.132-.217.7.7 0 0 0-.176-.16c-.06-.034-.12-.044-.047-.108s.491-.306.6-.317a8 8 0 0 1 .58-.044c.255-.01.547-.005.79.018.242.023.437.065.624.109.188.044.368.09.62.097s.576-.025.933-.014c.356.012.745.067 1.096.153a4.16 4.16 0 0 1 1.777.911c.194.178.282.327.269.433-.014.106-.13.171-.368.15-.237-.02-.96-.233-1.167-.272s-1.043-.197-1.29-.241a62 62 0 0 0-1.2-.204c-.46-.072-.88-.127-1.204-.11-.324.015-.55.103-.63.244-.078.141-.009.336.132.49.141.156.354.272.611.369s.558.176.93.203c.373.028.817.005 1.194-.011s.687-.026.997-.035c-.398-.01-.796-.018-1.115-.032s-.8-.051-.857-.076a2 2 0 0 1-.283-.148c-.11-.073-.211-.165-.244-.24-.032-.073.005-.129.278-.156a7.3 7.3 0 0 1 1.168.006c.387.035.65.105.912.14.261.034.52.034.856.08.336.047.747.14 1.15.257.403.118.796.262 1.15.481.354.22.668.516.941.824s.505.627.692.942c.188.314.331.624.454.923.122.298.224.585.289.823.065.239.092.428.09.593a.8.8 0 0 1-.09.393c-.056.09-.134.132-.213.102s-.157-.132-.221-.273a4 4 0 0 1-.178-.586 12 12 0 0 0-.063-.368 5 5 0 0 0-.124-.52c-.031-.084-.097-.264-.174-.426s-.165-.305-.263-.37c-.097-.065-.203-.05-.284-.03a.35.35 0 0 0-.192.111c-.056.063-.111.16-.167.257.056-.074.111-.148.162-.194a.3.3 0 0 1 .139-.074.4.4 0 0 1 .136-.001c.021.008.119.047.137.083.02.035.063.118.099.237.035.12.063.277.084.416.02.14.048.394.033.49l-.084.52c-.035.212-.072.43-.065.652s.109.689.145.803c.037.113.186.58.301.808s.34.673.51 1.141.287.959.36 1.306c.075.347.107.55.127.71s.03.303.012.604a8 8 0 0 1-.143 1.129 3.5 3.5 0 0 1-.326.916 3.4 3.4 0 0 1-.561.792c-.263.284-.982.92-1.04.96-.058.042-.167.119-.24.215-.073.097-.11.212-.243.38a4 4 0 0 1-.606.58 6 6 0 0 1-.724.49 3 3 0 0 1-.534.245c-.124.038-.186.032-.214-.044-.028-.075-.021-.219.063-.35.084-.133.413-.376.463-.428s.254-.262.333-.367l.383-.514c-.15.16-.301.321-.415.43a2 2 0 0 1-.319.252 3.227 3.227 0 0 0-.545.352c-.097.077-.282.243-.328.332a3 3 0 0 0-.187.41c-.045.135-.039.22.037.284.075.064.219.106.384.115a1.6 1.6 0 0 0 .555-.082c.203-.064.422-.165.618-.291s.37-.277.542-.467.522-.657.566-.722.137-.201.231-.317.19-.21.336-.36c.148-.148.347-.351.51-.513.161-.162.285-.283.407-.373a1.2 1.2 0 0 1 .315-.173c.077-.025.113-.015.13.03.016.046.013.128-.03.246a5 5 0 0 1-.245.5 9 9 0 0 1-.25.405l-.307.405c-.075.1-.23.304-.41.51-.179.205-.381.411-.607.593a4.5 4.5 0 0 1-.723.47c-.248.13-.746.34-.884.384s-.418.132-.663.206a3.5 3.5 0 0 1-.724.157c-.265.025-.582.015-.91.013a11 11 0 0 0-.894.025c-.231.02-.355.052-.464.08-.108.028-.29.074-.361.041a2.5 2.5 0 0 0-.336-.13c-.12-.034-.31-.034-.368-.006-.057.027-.177.083-.271.137-.095.053-.24.16-.333.19-.092.03-.28.094-.539.12a3.7 3.7 0 0 1-.805-.016 1.15 1.15 0 0 1-.522-.225 50 50 0 0 0-.597-.512 16 16 0 0 1-.46-.385c-.145-.128-.224-.214-.302-.299.144.19.288.38.436.532.15.151.447.371.555.473a2.7 2.7 0 0 0 .551.42c.238.126.506.185.774.224.269.04.537.06.76.06s.398-.02.516-.027.177 0 .187.03-.03.081-.121.144a1.2 1.2 0 0 1-.439.173c-.203.04-.464.046-.73.046-.264 0-.533-.007-.775-.03a3 3 0 0 1-.654-.127 2.3 2.3 0 0 1-.52-.252c-.148-.095-.265-.193-.377-.259a.85.85 0 0 0-.36-.114c-.144-.017-.327-.017-.468-.04a.57.57 0 0 1-.329-.154c-.09-.086-.263-.353-.322-.396a1.1 1.1 0 0 0-.342-.181c-.155-.044-.521-.03-.558-.058-.036-.027-.117-.088-.253-.22s-.326-.335-.509-.482c-.183-.148-.36-.24-.468-.311s-.147-.125-.239-.174c-.091-.049-.235-.095-.373-.144a4 4 0 0 1-.376-.153 1.7 1.7 0 0 1-.334-.216 2.9 2.9 0 0 1-.53-.54 5 5 0 0 1-.53-.943 7 7 0 0 1-.32-.916c-.068-.252-.102-.442-.135-.625 0 .21 0 .628.034.73.033.103.182.566.243.743.06.178.186.55.344.828s.348.46.553.64c.204.178.652.534.748.585s.294.157.465.24c.17.081.46.2.519.25l.329.276c.142.119.3.25.446.377.148.128.285.252.402.324s.315.112.37.173c.056.062.177.197.313.303.136.107.286.185.42.218.135.033.252.02.377.085.124.065.255.21.392.288.138.078.282.092.478.13.196.04.445.106.677.155s.449.081.681.098c.232.016.481.016.717.02.235.003.458.01.755.019.298.01.671.023.918-.009.248-.032.5-.19.539-.212s.128-.069.312-.099c.185-.03.466-.043.757-.03.292.013.593.052.88.043s.838-.128.96-.183.373-.167.616-.288a8 8 0 0 0 .699-.39c.219-.138.422-.281.796-.558s1.478-1.104 1.582-1.209.324-.324.51-.541c.184-.218.334-.434.482-.66s.29-.461.373-.644c.082-.183.101-.301.12-.426-.084.184-.254.55-.29.604a17 17 0 0 1-.514.731c-.105.144-.21.288-.283.372-.074.085-.169.139-.148.077.02-.062.097-.292.133-.35s.118-.186.218-.335.217-.32.335-.503.236-.38.33-.58c.093-.2.24-.624.33-.93.09-.304.274-.932.386-1.412.112-.481.152-.815.145-1.198a10 10 0 0 0-.11-1.184c-.052-.37-.158-1.005-.177-1.142a12 12 0 0 1-.076-.658c-.017-.225-.01-.382.023-.49.032-.108.091-.167.212-.07.122.099.305.354.432.668.128.314.2.687.24 1.067.038.38.045.766.029 1.08a4 4 0 0 1-.112.778c-.055.223-.127.426-.186.61a6 6 0 0 0-.147.53c-.043.182-.082.385-.12.536-.039.151-.12.366-.113.497l.033.694c.04-.295.118-.884.175-1.025a17 17 0 0 0 .66-1.979c.1-.373.173-.687.212-1.014a10 10 0 0 0 .05-1.06c.002-.393.002-.838-.06-1.394a13 13 0 0 0-.297-1.653 3.1 3.1 0 0 0-.337-.85 10 10 0 0 0-.449-.75c-.163-.242-.333-.451-.477-.634a4.4 4.4 0 0 1-.392-.567 16 16 0 0 1-.47-.952l-.264-.628c.02.19.04.38.101.612a4 4 0 0 0 .321.798c.154.292.357.6.53.854.174.256.318.459.435.668.118.21.21.425.285.618s.134.364.177.557.068.409.049.54c-.02.13-.085.176-.216.055s-.327-.409-.468-.644a7 7 0 0 1-.353-.697c-.128-.279-.298-.652-.468-1.008a12 12 0 0 0-.51-.982 5.5 5.5 0 0 0-.557-.769 15 15 0 0 0-.712-.774c-.234-.237-.656-.633-.728-.67a2 2 0 0 1-.339-.21c-.112-.093-.184-.198-.194-.266-.01-.069.043-.102.173-.102.131 0 .34.033.55.134s.419.272.628.442c-.281-.235-.562-.471-.788-.658a6 6 0 0 0-.661-.494 7 7 0 0 0-1.113-.575 17 17 0 0 0-1.587-.55c-.484-.144-.837-.23-1.583-.242-.746-.013-1.885.046-2.454.075-.57.03-.57.03-.16.02z" style="opacity:1;fill:currentColor;stroke:none;stroke-width:.0463328;stroke-linecap:round;stroke-linejoin:round;stroke-dasharray:none;stroke-opacity:1;paint-order:fill markers stroke" transform="translate(-1.343 -1.332)scale(1.05811)"/></svg>