<svg xmlns="http://www.w3.org/2000/svg" xml:space="preserve" style="fill-rule:evenodd;clip-rule:evenodd;stroke-linecap:round;stroke-linejoin:round;stroke-miterlimit:1.25" viewBox="0 0 1080 1506"><path d="M-487.911-19.084h2048v1536h-2048z" style="fill:none"/><path d="M539.802 1505.12 0 753.666 539.553 0l540.437 749.978zm-.057-58.06 498.605-697.01L539.643 57.987 41.627 753.632z"/><path d="M266.924 427.133s47.552-86.365 80.776-84.977c15.948.666 28.321 92.019-2.476 158.434-9.798 21.131 29.15-60.153 18.639-106.355-8.932-39.257 97.165-48.622 146.044-59.333 32.658-7.157 135.464 7.478 140.291 23.122 3.102 10.052-12.203-14.389 29.434-26.191 21.121-5.986 27.116 1.224 32.817 4.661 5.7 3.438 111.108 159.199 111.108 159.199 20.48 31.425 72.592 160.215 62.989 175.688-61.326 98.814-206.104-187.816-205.783-187.227 84.151 154.443 136.11 191.736 135.908 191.623-.056.468-26.656 97.859-31.453 102.361-.256 11.993-69.998 145.073-69.998 145.073-20.348 21.156 69.503-67.234 69.503-67.234l-3.897 24.901c3.362-5.329 47.395-33.042 49.08-34.071 130.344-79.602 177.734-83.69 194.874-91.655 0 0-15.98 21.406-33.217 27.549-63.667 22.69-192.541 124.233-232.921 151.741-37.659 25.654-112.953 86.668-211.649 99.018-90.498 11.33-199.263-64.946-236.094-93.484C262.32 902.335 85.327 812.34 85.327 812.34l-13.268-24.267c71.729 5.918 164.913 80.487 167.379 71.771 4.959-17.529-4.249-22.273 1.162-21.468 39.893 5.934 75.145 82.519 78.724 79.704 4.732-3.722-93.464-246.454-93.464-246.454 21.048-10.923 84.161-94.989 92.239-115.178 7.521-18.799 36.389-67.421 27.125-55.858-.787.983-17.54 38.096-34.758 71.364-13.03 25.177-107.312 159.533-150.955 102.267-13.824-18.138 16.866-85.305 23.209-96.448s55.078-110.6 55.078-110.6c-1.892 3.554-40.48 103.889-12.188 113.501 11.791 4.006 39.267-18.464 58.753-59.099s14.658-95.182 3.43-100.566c-4.506-2.161-5.739-1.832-20.869 6.124m264.754 571.19c37.365-.012 67.691-30.356 67.68-67.721-.012-37.365-30.356-67.691-67.721-67.679-37.365.011-67.691 30.356-67.679 67.721.011 37.364 30.356 67.69 67.72 67.679m279.614-419.297c7.712-8.537-2.427-61.74-20.427-98.47s-42.879-65.18-53.209-60.118-6.676 46.806 10.051 84.133c23.177 51.721 54.846 84.127 63.585 74.455" style="fill:none;stroke:#000;stroke-width:8px"/><path d="M345.187 840.832c7.663-6.472 70.131-59.226 124.245-16.813M573.758 826.114c87.522-43.761 127.647 7.518 133.655 13.827M473.115 784.055c19.677-39.779 38.536-1.831 62.097-8.637 18.797-5.431 20.772-4.605 31.842 10.893M701.917 551.58c-7.137-2.319-127.227-41.34-88.89 29.968 17.126 31.853 81.673 58.431 89.73 61.749M354.932 643.186c7.429-4.807 69.057-44.684 65.11-89.418-.606-6.878-4.298-22.361-85.945 7.813" style="fill:none;stroke:#000;stroke-width:8px"/></svg>